<svg width="33" height="32" viewBox="0 0 33 32" fill="none" xmlns="http://www.w3.org/2000/svg">
<path d="M12.0042 30.6258C-1.48459 21.8137 2.28274 3.46421 2.22861 0.822754C-0.48863 7.41557 0.0418265 14.2249 0.0418265 16.0003C0.0418265 23.5783 5.30309 29.9113 12.3614 31.5676C12.2532 31.2969 12.0583 30.7773 12.0042 30.6258Z" fill="url(#paint0_linear_160_735)"/>
<path d="M24.7893 2.60901C25.5471 13.1748 10.6727 20.5038 13.6497 29.7814C17.7527 26.4579 23.9882 20.6121 25.7961 14.6255C24.8759 18.5335 22.3211 25.4619 15.2195 31.979C24.4104 32.4445 32.0317 25.1155 32.0317 16.0003C32.0317 10.3926 29.1521 5.46698 24.7893 2.60901Z" fill="url(#paint1_linear_160_735)"/>
<path d="M16.042 0C12.7185 0 9.74149 1.50476 8.07434 2.46825C5.46536 0.822749 4.09051 0.822749 2.97546 0.530457C3.94977 1.65632 15.2517 7.41557 12.134 15.3508C10.5967 19.2588 10.9973 23.1019 10.9973 25.6784C6.24481 19.7027 5.38958 14.3115 5.38958 14.3115C5.2705 20.1249 9.21104 26.0898 11.5602 29.0452C10.9107 15.3616 23.9339 7.87025 24.2154 2.25173C21.8229 0.822749 19.0299 0 16.042 0Z" fill="url(#paint2_linear_160_735)"/>
<defs>
<linearGradient id="paint0_linear_160_735" x1="6.18137" y1="-0.872452" x2="6.18137" y2="35.6115" gradientUnits="userSpaceOnUse">
<stop offset="0.109375" stop-color="#B4EA6F"/>
<stop offset="1" stop-color="#225B20"/>
</linearGradient>
<linearGradient id="paint1_linear_160_735" x1="22.6445" y1="0.988451" x2="22.6445" y2="35.8658" gradientUnits="userSpaceOnUse">
<stop offset="0.109375" stop-color="#B4EA6F"/>
<stop offset="1" stop-color="#225B20"/>
</linearGradient>
<linearGradient id="paint2_linear_160_735" x1="13.5966" y1="-1.60149" x2="13.5966" y2="32.8656" gradientUnits="userSpaceOnUse">
<stop offset="0.109375" stop-color="#B4EA6F"/>
<stop offset="1" stop-color="#225B20"/>
</linearGradient>
</defs>
</svg>
