<svg width="28" height="30" viewBox="0 0 28 30" fill="none" xmlns="http://www.w3.org/2000/svg">
<rect x="2.15381" width="23.6923" height="29.0769" rx="4" fill="#CBE3FA"/>
<path fill-rule="evenodd" clip-rule="evenodd" d="M17.5383 29.0769H21.8462C24.0553 29.0769 25.8462 27.2861 25.8462 25.0769V4C25.8462 3.73688 25.8207 3.4797 25.7723 3.23077H27C27.5523 3.23077 28 2.78305 28 2.23077V1C28 0.447715 27.5523 0 27 0H22.6922C23.2445 0 23.6922 0.447715 23.6922 1V2.23077C23.6922 2.78305 23.2445 3.23077 22.6922 3.23077H21.4644C21.5129 3.4797 21.5383 3.73688 21.5383 4V25.0769C21.5383 27.2861 19.7475 29.0769 17.5383 29.0769Z" fill="#BFD8EF"/>
<path fill-rule="evenodd" clip-rule="evenodd" d="M2.15381 10.7693V25.0769C2.15381 27.2861 3.94467 29.0769 6.15381 29.0769H21.8461C24.0553 29.0769 25.8461 27.2861 25.8461 25.0769V13.4616L2.15381 10.7693Z" fill="#56C3C1"/>
<path fill-rule="evenodd" clip-rule="evenodd" d="M17.5386 29.0281H21.8464C24.0555 29.0281 25.8464 27.2372 25.8464 25.0281V13.4126L21.5386 12.9231L21.5386 25.0281C21.5386 27.2372 19.7477 29.0281 17.5386 29.0281Z" fill="#1AA7A1"/>
<path d="M11.4448 10.894H8.71169V9.29232C8.71169 8.94185 8.44906 8.65771 8.12513 8.65771C7.8012 8.65771 7.53857 8.94185 7.53857 9.29232V18.7506H8.71169V16.7701H9.96367C10.2876 16.7701 10.5502 16.4859 10.5502 16.1355C10.5502 15.785 10.2876 15.5009 9.96367 15.5009H8.71169V12.1632H11.4448C11.7687 12.1632 12.0313 11.879 12.0313 11.5286C12.0313 11.1781 11.7687 10.894 11.4448 10.894Z" fill="white"/>
<path d="M11.4202 20.0566H8.71169V18.2916H7.53857V23.7929C7.53857 24.1434 7.8012 24.4275 8.12513 24.4275C8.44906 24.4275 8.71169 24.1434 8.71169 23.7929V21.3258H11.4448C11.7747 21.3258 12.041 21.0311 12.031 20.6717C12.0214 20.3244 11.7414 20.0566 11.4202 20.0566Z" fill="white"/>
<rect width="28" height="3.23077" rx="1" fill="#CBE3FA"/>
</svg>
