<svg width="22" height="22" viewBox="0 0 22 22" fill="none" xmlns="http://www.w3.org/2000/svg">
<g clip-path="url(#clip0_164_57)">
<path d="M18.7917 22.0001H7.79167C6.5285 22.0001 5.5 20.9725 5.5 19.7084V5.95838C5.5 4.6943 6.5285 3.66672 7.79167 3.66672H18.7917C20.0548 3.66672 21.0833 4.6943 21.0833 5.95838V19.7084C21.0833 20.9725 20.0548 22.0001 18.7917 22.0001ZM7.79167 4.58338C7.03358 4.58338 6.41667 5.2003 6.41667 5.95838V19.7084C6.41667 20.4665 7.03358 21.0834 7.79167 21.0834H18.7917C19.5498 21.0834 20.1667 20.4665 20.1667 19.7084V5.95838C20.1667 5.2003 19.5498 4.58338 18.7917 4.58338H7.79167Z" fill="#68AC4E"/>
<path d="M4.12502 19.25H3.20835C1.94519 19.25 0.916687 18.2224 0.916687 16.9583V2.29167C0.916687 1.02758 1.94519 0 3.20835 0H14.2084C15.4715 0 16.5 1.02758 16.5 2.29167C16.5 2.54467 16.2947 2.75 16.0417 2.75C15.7887 2.75 15.5834 2.54467 15.5834 2.29167C15.5834 1.53358 14.9664 0.916667 14.2084 0.916667H3.20835C2.45027 0.916667 1.83335 1.53358 1.83335 2.29167V16.9583C1.83335 17.7164 2.45027 18.3333 3.20835 18.3333H4.12502C4.37802 18.3333 4.58335 18.5387 4.58335 18.7917C4.58335 19.0447 4.37802 19.25 4.12502 19.25Z" fill="#68AC4E"/>
<path d="M16.9584 15.5834H9.62502C9.37202 15.5834 9.16669 15.3781 9.16669 15.1251C9.16669 14.8721 9.37202 14.6667 9.62502 14.6667H16.9584C17.2114 14.6667 17.4167 14.8721 17.4167 15.1251C17.4167 15.3781 17.2114 15.5834 16.9584 15.5834Z" fill="#68AC4E"/>
<path d="M16.9584 19.2502H9.62502C9.37202 19.2502 9.16669 19.0448 9.16669 18.7918C9.16669 18.5388 9.37202 18.3335 9.62502 18.3335H16.9584C17.2114 18.3335 17.4167 18.5388 17.4167 18.7918C17.4167 19.0448 17.2114 19.2502 16.9584 19.2502Z" fill="#68AC4E"/>
<path d="M16.9584 11.9167H9.62502C9.37202 11.9167 9.16669 11.7113 9.16669 11.4583C9.16669 11.2053 9.37202 11 9.62502 11H16.9584C17.2114 11 17.4167 11.2053 17.4167 11.4583C17.4167 11.7113 17.2114 11.9167 16.9584 11.9167Z" fill="#68AC4E"/>
<path d="M16.9584 8.24992H9.62502C9.37202 8.24992 9.16669 8.04459 9.16669 7.79159C9.16669 7.53859 9.37202 7.33325 9.62502 7.33325H16.9584C17.2114 7.33325 17.4167 7.53859 17.4167 7.79159C17.4167 8.04459 17.2114 8.24992 16.9584 8.24992Z" fill="#68AC4E"/>
</g>
<defs>
<clipPath id="clip0_164_57">
<rect width="22" height="22" fill="white"/>
</clipPath>
</defs>
</svg>
