<svg width="22" height="36" viewBox="0 0 22 36" fill="none" xmlns="http://www.w3.org/2000/svg">
<path d="M4.96216 34.9135H17.0378V36H4.96216V34.9135Z" fill="#D6A826"/>
<path d="M5.42329 35.9999H3.67314C3.00489 35.9999 2.46313 35.4582 2.46313 34.7899V32.3748H5.42329V35.9999Z" fill="#F8C52D"/>
<path d="M18.3266 35.9999H16.5764V32.3748H19.5366V34.7899C19.5366 35.4582 18.9948 35.9999 18.3266 35.9999Z" fill="#F8C52D"/>
<path d="M6.03076 0.796753H15.969V8.69784H6.03076V0.796753Z" fill="#F8C52D"/>
<path d="M13.1055 0.796753H15.9689V8.69784H13.1055V0.796753Z" fill="#D6A826"/>
<path d="M5.94551 0H6.10919C6.40078 0 6.63717 0.236391 6.63717 0.527977V8.69787H3.02051V2.925C3.02051 1.30957 4.33008 0 5.94551 0V0Z" fill="#FDE784"/>
<path d="M6.63714 0.528047V8.69794H4.82919V0.528047C4.82919 0.428062 4.80093 0.333914 4.75171 0.25425C5.116 0.0905625 5.52022 0 5.9454 0H6.10909C6.40103 0 6.63714 0.236109 6.63714 0.528047Z" fill="#FDDD45"/>
<path d="M18.9792 2.92605V8.69787H15.3625V0.527977C15.3625 0.236391 15.5989 0 15.8905 0H16.0532C17.6691 0 18.9792 1.31006 18.9792 2.92605Z" fill="#FDE784"/>
<path d="M18.9793 2.92634V8.69794H17.1706V2.92634C17.1706 1.73623 16.46 0.711281 15.4395 0.25425C15.5314 0.101391 15.6995 0 15.8907 0H16.053C17.669 0 18.9793 1.31034 18.9793 2.92634Z" fill="#FDDD45"/>
<path d="M21.0169 28.248V9.762C21.0169 8.15543 19.7145 6.85303 18.1079 6.85303H3.89188C2.28531 6.85303 0.98291 8.15543 0.98291 9.762V28.2479H21.0169V28.248Z" fill="#FDE784"/>
<path d="M0.98291 29.675V30.6051C0.98291 32.2117 2.28531 33.5141 3.89188 33.5141H18.1079C19.7145 33.5141 21.0168 32.2117 21.0168 30.6051V29.675H0.98291Z" fill="#FDE784"/>
<path d="M18.678 9.762V28.2479H21.0162V9.762C21.0162 8.15543 19.7146 6.85303 18.1079 6.85303H15.769C17.3757 6.85303 18.678 8.15543 18.678 9.762Z" fill="#FDDD45"/>
<path d="M18.678 29.675V30.6051C18.678 32.2117 17.3756 33.5134 15.769 33.5134H18.1079C19.7146 33.5134 21.0162 32.2118 21.0162 30.6051V29.675H18.678Z" fill="#FDDD45"/>
<path d="M0.98291 27.7947H21.0169V30.0315H0.98291V27.7947Z" fill="#5A5A5A"/>
<path d="M18.678 27.7947H21.0169V30.0315H18.678V27.7947Z" fill="#444444"/>
<path d="M0.98291 25.4492H21.0169V26.5358H0.98291V25.4492Z" fill="#FB6A3B"/>
<path d="M18.678 25.4492H21.0169V26.5358H18.678V25.4492Z" fill="#FB5532"/>
<path d="M4.71381 22.1485H3.5237C3.22361 22.1485 2.98047 21.9053 2.98047 21.6052C2.98047 21.3052 3.22368 21.062 3.5237 21.062H4.71381C5.01391 21.062 5.25705 21.3052 5.25705 21.6052C5.25705 21.9053 5.01384 22.1485 4.71381 22.1485Z" fill="#5A5A5A"/>
<path d="M6.53385 23.7936H3.5237C3.22361 23.7936 2.98047 23.5504 2.98047 23.2504C2.98047 22.9504 3.22368 22.7072 3.5237 22.7072H6.53385C6.83395 22.7072 7.07709 22.9504 7.07709 23.2504C7.07709 23.5504 6.83395 23.7936 6.53385 23.7936Z" fill="#5A5A5A"/>
</svg>
