<svg width="16" height="16" viewBox="0 0 16 16" fill="none" xmlns="http://www.w3.org/2000/svg">
<g clip-path="url(#clip0_238_616)">
<path d="M15.5808 11.7578L13.345 9.52199C12.5465 8.7235 11.1891 9.04292 10.8697 10.0809C10.6301 10.7996 9.83165 11.1988 9.113 11.0391C7.51603 10.6399 5.3601 8.5638 4.96086 6.88697C4.72131 6.1683 5.20041 5.36981 5.91905 5.13029C6.95708 4.8109 7.27648 3.45347 6.47799 2.65498L4.24222 0.419207C3.60343 -0.139736 2.64524 -0.139736 2.0863 0.419207L0.569168 1.93634C-0.947962 3.53332 0.728866 7.76531 4.48177 11.5182C8.23467 15.2711 12.4667 17.0278 14.0636 15.4308L15.5808 13.9137C16.1397 13.2749 16.1397 12.3167 15.5808 11.7578Z" fill="#46515B"/>
</g>
<defs>
<clipPath id="clip0_238_616">
<rect width="16" height="16" fill="white"/>
</clipPath>
</defs>
</svg>
