<svg width="36" height="34" viewBox="0 0 36 34" fill="none" xmlns="http://www.w3.org/2000/svg">
<path d="M21.734 27.5373C21.7065 27.1629 21.3946 26.873 21.0191 26.873C20.8395 26.873 13.2016 26.873 13.0613 26.873L12.7119 31.6323H22.0346L21.734 27.5373Z" fill="#596C76"/>
<path d="M34.4055 0.96875H33.9277C33.0439 0.96875 3.03328 0.96875 2.26773 0.96875C1.17278 0.96875 0.285156 1.85637 0.285156 2.95132V21.3505L1.16443 22.5215H34.5362C34.5362 21.7449 34.5362 2.55436 34.5362 1.67702C34.5363 1.4274 34.4897 1.18876 34.4055 0.96875Z" fill="#CBE3FA"/>
<path d="M20.7005 26.8731C21.076 26.8731 21.3878 27.163 21.4154 27.5374L21.716 31.6324H23.5426L22.9593 23.6876H13.2951L13.0613 26.8731H20.7005Z" fill="#465A61"/>
<path d="M33.9871 0.96875H33.9275C34.0118 1.18876 34.0583 1.4274 34.0583 1.6771V22.5215H34.6637L35.9696 21.3506V2.95124C35.9696 1.85637 35.082 0.96875 33.9871 0.96875Z" fill="#BFD8EF"/>
<path d="M0.284997 21.3505C0.284997 24.3368 0.246576 24.2935 0.415797 24.7504H32.5535C33.6485 24.7504 34.5361 23.8628 34.5361 22.7679C34.5361 22.027 34.5361 21.7074 34.5361 21.3505C34.2706 21.3505 0.713577 21.3505 0.284997 21.3505Z" fill="#8D9CA8"/>
<path d="M34.0583 21.3506V22.768C34.0583 23.8629 33.1706 24.7506 32.0757 24.7506H0.415771C0.700951 25.4955 1.42221 26.0248 2.26747 26.0248H33.987C35.0819 26.0248 35.9696 25.1372 35.9696 24.0422C35.9696 22.6711 35.9696 22.7433 35.9696 21.3506H34.0583Z" fill="#7A8C98"/>
<path d="M25.8894 31.4901C25.8894 30.6549 25.2123 29.9777 24.3771 29.9777H10.4441C9.60884 29.9777 8.93164 30.6549 8.93164 31.4901C8.93164 32.3254 9.60884 33.0026 10.4441 33.0026H24.3769C25.2122 33.0026 25.8894 32.3255 25.8894 31.4901Z" fill="#8D9CA8"/>
<path d="M25.8103 29.9777H24.2175C25.0528 29.9777 25.73 30.6549 25.73 31.4901C25.73 32.3254 25.0528 33.0026 24.2175 33.0026H25.8103C26.6456 33.0026 27.3228 32.3255 27.3228 31.4901C27.3228 30.6549 26.6456 29.9777 25.8103 29.9777Z" fill="#7A8C98"/>
</svg>
