<svg width="36" height="22" viewBox="0 0 36 22" fill="none" xmlns="http://www.w3.org/2000/svg">
<path d="M35.3793 18.1379H0.620718C0.398527 18.1388 0.192811 18.0209 0.0813324 17.8286C-0.0301461 17.6364 -0.0303804 17.3993 0.0807181 17.2069L1.8621 14.1034C1.97341 13.9106 2.17947 13.7922 2.4021 13.7931H33.598C33.8206 13.7922 34.0266 13.9106 34.138 14.1034L35.9193 17.2069C36.0304 17.3993 36.0302 17.6364 35.9187 17.8286C35.8072 18.0209 35.6015 18.1388 35.3793 18.1379Z" fill="#805333"/>
<path d="M27.9126 5.10349H8.08776C7.86557 5.10437 7.65985 4.98642 7.54837 4.79422C7.4369 4.60201 7.43666 4.36488 7.54776 4.17246L8.26155 2.93108C8.37287 2.73827 8.57892 2.61985 8.80155 2.62073H27.1988C27.4214 2.61985 27.6275 2.73827 27.7388 2.93108L28.4526 4.17246C28.5637 4.36488 28.5635 4.60201 28.452 4.79422C28.3405 4.98642 28.1348 5.10437 27.9126 5.10349Z" fill="#805333"/>
<path d="M31.1089 10.6896H4.89098C4.66879 10.6905 4.46307 10.5726 4.3516 10.3804C4.24012 10.1882 4.23988 9.95103 4.35098 9.7586L5.41857 7.89653C5.52988 7.70372 5.73594 7.5853 5.95857 7.58619H30.0413C30.264 7.5853 30.47 7.70372 30.5813 7.89653L31.6489 9.7586C31.76 9.95103 31.7598 10.1882 31.6483 10.3804C31.5368 10.5726 31.3311 10.6905 31.1089 10.6896Z" fill="#805333"/>
<path d="M30.718 21.8621H28.6635C28.1043 21.8625 27.6138 21.4889 27.4656 20.9497L26.6898 18.1379L25.4856 13.7931L23.7725 7.58622L23.0835 5.10346L22.4008 2.62071H22.3946L21.9291 0.926223C21.8767 0.739506 21.9146 0.539048 22.0316 0.384352C22.1485 0.229656 22.331 0.138502 22.5249 0.137947H23.1456C23.3984 0.136681 23.6268 0.288903 23.7229 0.522775L24.5918 2.62071L25.6222 5.10346L26.6525 7.58622L27.9435 10.6897L29.2284 13.7931L31.0346 18.1379L31.8663 20.1428C32.0263 20.5263 31.9838 20.9645 31.7529 21.3102C31.5221 21.6558 31.1336 21.8629 30.718 21.8621Z" fill="#BDC3C7"/>
<path d="M14.071 0.926223L13.6055 2.62071H13.5993L12.9165 5.10346L12.2276 7.58622L10.5145 13.7931L9.31033 18.1379L8.53447 20.9497C8.38627 21.4889 7.89579 21.8625 7.33654 21.8621H5.28206C4.86645 21.8629 4.47798 21.6558 4.24715 21.3102C4.01633 20.9645 3.97377 20.5263 4.13378 20.1428L4.96551 18.1379L6.77171 13.7931L8.05654 10.6897L9.34757 7.58622L10.3779 5.10346L11.4083 2.62071L12.2772 0.522775C12.3733 0.288903 12.6016 0.136681 12.8545 0.137947H13.4752C13.6691 0.138502 13.8516 0.229656 13.9685 0.384352C14.0855 0.539048 14.1234 0.739506 14.071 0.926223Z" fill="#BDC3C7"/>
</svg>
