<svg width="32" height="24" viewBox="0 0 32 24" fill="none" xmlns="http://www.w3.org/2000/svg">
<mask id="mask0_182_987" style="mask-type:alpha" maskUnits="userSpaceOnUse" x="0" y="0" width="32" height="24">
<rect width="32" height="24" fill="#C4C4C4"/>
</mask>
<g mask="url(#mask0_182_987)">
<path fill-rule="evenodd" clip-rule="evenodd" d="M1.70711 15.2374C1.31658 14.8469 1.31658 14.2137 1.70711 13.8232L14.5304 0.999897C15.3114 0.218849 16.5778 0.218846 17.3588 0.999896L30.1821 13.8232C30.5726 14.2137 30.5726 14.8469 30.1821 15.2374C29.7916 15.6279 29.1584 15.6279 28.7679 15.2374L15.9446 2.41411L3.12132 15.2374C2.7308 15.6279 2.09763 15.6279 1.70711 15.2374Z" fill="white"/>
<path fill-rule="evenodd" clip-rule="evenodd" d="M1.70711 23.2374C1.31658 22.8469 1.31658 22.2137 1.70711 21.8232L14.5304 8.9999C15.3114 8.21885 16.5778 8.21885 17.3588 8.9999L30.1821 21.8232C30.5726 22.2137 30.5726 22.8469 30.1821 23.2374C29.7916 23.6279 29.1584 23.6279 28.7679 23.2374L15.9446 10.4141L3.12132 23.2374C2.7308 23.6279 2.09763 23.6279 1.70711 23.2374Z" fill="white" fill-opacity="0.53"/>
</g>
</svg>
